<?xml version="1.0" standalone="no"?>
<!DOCTYPE svg PUBLIC "-//W3C//DTD SVG 20010904//EN"
 "http://www.w3.org/TR/2001/REC-SVG-20010904/DTD/svg10.dtd">
<svg version="1.0" xmlns="http://www.w3.org/2000/svg"
 width="1536.000000pt" height="1024.000000pt" viewBox="0 0 1536.000000 1024.000000"
 preserveAspectRatio="xMidYMid meet">

<g transform="translate(0.000000,1024.000000) scale(0.100000,-0.100000)"
fill="#000000" stroke="none">
<path d="M0 5120 l0 -5120 7680 0 7680 0 0 5120 0 5120 -7680 0 -7680 0 0
-5120z m3037 3899 c117 -16 212 -42 493 -134 265 -87 406 -126 524 -145 38 -6
77 -15 87 -20 51 -28 65 -221 22 -305 -26 -50 -46 -69 -108 -97 -44 -20 -64
-23 -170 -21 -124 2 -157 8 -447 84 -100 26 -134 31 -155 23 -27 -9 -28 -11
-33 -109 -8 -134 -40 -206 -136 -299 l-67 -65 26 -10 c14 -6 133 -39 264 -74
216 -58 238 -62 241 -45 4 23 49 58 76 58 11 0 100 -20 196 -45 114 -29 177
-40 181 -33 14 22 20 165 13 314 -6 125 -5 156 5 149 34 -20 45 -79 49 -260 2
-107 0 -196 -6 -218 -6 -20 -7 -37 -2 -37 5 0 20 -4 34 -10 l25 -9 -34 -101
-34 -102 35 -141 c47 -189 53 -264 26 -297 -19 -24 -26 -25 -128 -27 l-107 -2
-24 -93 c-14 -55 -30 -99 -41 -108 -11 -9 -29 -55 -44 -115 -47 -180 -81 -254
-141 -299 -70 -53 -222 -51 -373 6 l-91 34 -42 -78 -43 -78 50 -63 c93 -119
162 -251 225 -433 36 -102 59 -210 167 -779 106 -557 123 -636 139 -655 18
-21 139 -51 738 -185 208 -47 380 -90 385 -97 12 -17 2 -115 -22 -235 -36
-174 -36 -174 137 -138 155 32 343 94 563 185 229 94 228 94 334 86 183 -13
270 -28 311 -51 41 -23 258 -239 309 -307 27 -36 56 -50 56 -28 0 38 -197 342
-280 433 -29 32 -62 58 -78 61 -42 9 -460 56 -500 56 -20 0 -113 -31 -221 -74
-252 -101 -289 -110 -430 -103 -83 4 -118 10 -129 21 -12 12 -13 18 -3 29 9
12 35 14 134 10 146 -7 165 -2 416 99 96 39 191 72 210 75 57 7 534 -53 575
-72 60 -29 252 -289 332 -449 47 -97 44 -136 -14 -162 -2 -1 11 -25 28 -53 18
-28 34 -68 37 -89 l5 -37 374 0 375 0 9 35 c69 272 665 2534 781 2967 12 46
31 92 41 103 42 45 109 33 137 -24 12 -25 11 -38 -8 -110 -52 -191 -526 -2005
-727 -2776 -52 -201 -106 -389 -121 -418 -31 -65 -85 -107 -156 -122 -36 -7
-406 -10 -1182 -8 -1268 3 -1168 -3 -1221 77 -18 29 -36 42 -62 48 -30 7 -37
13 -37 33 0 28 -21 27 220 15 127 -7 148 -6 219 14 99 27 208 83 306 157 41
32 93 65 115 75 48 21 201 45 236 36 14 -3 54 -26 89 -49 61 -40 70 -43 153
-48 48 -3 87 -2 87 2 0 3 -51 55 -114 115 l-114 109 -98 12 c-98 12 -134 28
-119 52 11 17 196 5 239 -15 38 -18 210 -177 251 -233 28 -38 33 -41 88 -44
31 -2 57 -1 57 1 0 18 -133 171 -234 268 l-123 119 -73 11 c-78 12 -96 22 -86
49 5 14 16 16 79 9 39 -3 86 -13 103 -21 43 -21 300 -283 360 -369 40 -57 53
-69 73 -67 20 3 22 7 17 35 -12 60 -135 231 -269 372 -132 141 -133 141 -325
161 -190 20 -199 19 -387 -58 -216 -89 -328 -128 -470 -167 -186 -51 -278 -68
-283 -52 -13 38 -28 41 -235 41 l-202 0 -25 31 -26 31 -269 29 c-381 41 -959
110 -963 114 -2 2 17 131 42 287 99 613 147 989 131 1034 -6 15 -14 28 -20 28
-12 1 -18 -34 -45 -267 -12 -98 -36 -275 -55 -395 -55 -359 -107 -677 -110
-680 -2 -2 -59 3 -127 12 -376 51 -484 68 -496 80 -19 18 -20 26 -143 731
-135 775 -129 746 -146 752 -33 13 -33 -15 -4 -183 16 -93 68 -389 115 -659
108 -621 113 -643 131 -671 8 -12 22 -25 32 -28 70 -21 1459 -191 1814 -222
43 -4 83 -10 90 -15 11 -7 14 -67 14 -307 0 -312 -4 -344 -44 -357 -20 -6
-232 -33 -656 -82 l-320 -38 -650 0 c-626 1 -981 13 -1040 35 -44 17 -103 142
-160 342 -88 303 -219 1045 -264 1486 -10 101 -21 186 -25 189 -3 4 -12 1 -18
-5 -31 -31 0 -335 83 -837 134 -800 240 -1159 359 -1217 61 -29 377 -42 1044
-43 l608 0 -7 -120 c-11 -197 -20 -254 -46 -281 l-22 -24 -1277 0 -1277 0 -34
23 c-19 12 -43 40 -53 62 -23 47 -25 29 69 750 35 270 100 777 145 1129 108
851 154 1122 229 1344 77 232 194 425 356 588 122 123 256 224 506 379 115 72
203 133 224 157 18 22 65 102 104 178 l71 138 -34 73 c-70 152 -154 438 -181
617 -19 124 -19 223 0 342 30 182 81 287 186 384 50 46 165 115 195 116 5 1
19 23 32 50 90 192 346 291 649 249z m4046 -16 c15 -8 37 -28 47 -46 20 -31
20 -55 18 -1109 l-3 -1076 -25 -27 c-53 -57 -1 -55 -1144 -55 -1171 0 -1114
-3 -1156 65 -20 32 -20 46 -20 1109 l0 1076 34 38 34 37 1049 5 c576 3 1068 4
1093 1 25 -2 58 -10 73 -18z m4485 -34 c550 -59 1057 -347 1387 -787 470 -626
547 -1467 200 -2180 -161 -330 -387 -595 -681 -794 -83 -57 -253 -153 -258
-147 -2 2 -7 60 -11 129 l-7 125 44 24 c284 157 542 436 699 756 130 265 189
526 189 832 0 796 -478 1479 -1206 1723 -467 156 -940 121 -1380 -100 -475
-239 -825 -709 -935 -1255 -27 -138 -38 -446 -19 -593 78 -637 452 -1172 1005
-1437 254 -122 494 -175 797 -178 l168 -2 0 -42 c0 -39 -2 -43 -25 -43 -24 0
-25 -2 -25 -75 l0 -75 -46 0 c-40 0 -52 6 -92 41 -66 57 -154 104 -247 130
-114 33 -303 32 -429 0 l-89 -23 -124 61 c-731 358 -1171 1106 -1140 1941 25
686 370 1306 925 1664 169 109 427 217 637 267 197 46 454 61 663 38z m162
-633 c359 -68 631 -221 719 -406 37 -79 37 -182 -2 -264 -44 -95 -176 -217
-302 -282 -321 -165 -780 -214 -1201 -129 -199 40 -351 100 -491 191 -269 178
-313 415 -114 615 100 100 238 173 432 229 81 24 157 38 334 64 75 11 543 -3
625 -18z m-1380 -958 c78 -69 220 -158 314 -197 207 -86 558 -133 836 -112
161 13 295 35 410 67 185 52 435 205 524 321 l41 53 3 -218 c2 -193 0 -224
-17 -282 -60 -198 -243 -349 -536 -443 -170 -54 -271 -69 -520 -74 -187 -4
-241 -2 -355 15 -416 63 -712 232 -806 460 -23 55 -24 68 -24 312 l0 255 35
-52 c19 -28 62 -75 95 -105z m-14 -728 c150 -140 355 -229 649 -283 103 -19
156 -22 375 -22 224 0 270 3 375 23 327 62 606 211 716 381 l29 45 0 -236 c0
-204 -3 -245 -19 -297 -72 -231 -346 -410 -737 -483 -102 -19 -154 -22 -364
-22 -207 0 -263 4 -360 22 -228 42 -381 97 -516 188 -102 67 -174 146 -222
243 l-37 75 -3 255 -3 256 34 -50 c19 -27 56 -70 83 -95z m-4037 -759 c295
-126 554 -236 576 -245 52 -22 74 -43 96 -91 17 -36 19 -71 19 -375 0 -329 0
-337 -22 -380 -29 -56 -74 -87 -141 -95 -29 -3 -439 -5 -912 -3 l-860 3 -40
23 c-53 31 -74 61 -86 126 -6 34 -9 269 -7 618 3 517 4 566 20 591 34 51 39
52 408 57 190 3 360 4 379 2 19 -1 275 -105 570 -231z m3315 -484 c419 -112
637 -435 613 -910 -22 -425 -235 -688 -637 -784 -50 -11 -148 -16 -422 -20
l-358 -5 0 877 0 877 353 -4 c342 -5 355 -6 451 -31z m2601 -467 l145 0 0
-115 0 -115 -146 0 -145 0 3 -357 c3 -397 5 -405 70 -439 36 -18 157 -21 200
-5 l26 10 4 -97 c3 -53 1 -102 -4 -109 -23 -29 -112 -48 -228 -48 -105 0 -120
3 -172 28 -67 33 -111 80 -147 157 l-26 55 -3 403 -3 402 -105 0 -104 0 0 120
0 120 105 0 105 0 0 140 0 140 28 7 c15 3 77 18 137 32 l110 26 3 -177 2 -178
145 0z m950 35 c192 -40 314 -167 344 -355 6 -37 11 -245 11 -487 l0 -423
-125 0 c-69 0 -128 -1 -132 -2 -5 -2 -9 30 -11 70 l-3 73 -64 -59 c-165 -155
-447 -160 -595 -12 -157 157 -125 458 62 585 102 68 269 105 480 105 l108 0 0
48 c0 60 -14 110 -43 153 -80 118 -325 114 -539 -10 l-68 -39 0 128 0 129 43
25 c96 57 212 84 357 85 58 0 137 -6 175 -14z m-2091 -25 c184 -47 287 -155
315 -330 6 -36 12 -255 13 -498 l3 -432 -137 0 -138 0 0 77 0 76 -59 -57 c-99
-94 -208 -132 -356 -124 -217 12 -357 168 -343 386 13 195 123 317 335 373 57
15 122 22 246 26 l167 6 0 42 c0 103 -50 185 -135 221 -100 42 -307 8 -439
-71 -32 -19 -59 -35 -60 -35 0 0 0 56 0 125 1 77 6 130 13 139 16 19 100 54
184 76 102 27 287 27 391 0z m-6333 -1317 c11 -13 14 -61 13 -222 -1 -224 -7
-255 -51 -272 -22 -8 -286 -37 -353 -39 -13 0 -15 37 -15 275 l0 275 196 0
c171 0 198 -2 210 -17z m4532 -178 l47 -17 0 -79 c0 -43 -2 -79 -4 -79 -3 0
-20 9 -38 20 -52 30 -155 53 -212 46 -96 -11 -163 -81 -153 -159 9 -65 52 -99
192 -152 103 -38 163 -75 209 -126 122 -136 71 -352 -102 -435 -104 -51 -333
-43 -427 15 -27 16 -28 19 -26 86 1 39 4 72 6 74 2 2 19 -6 37 -17 96 -57 265
-76 343 -37 101 51 114 173 26 248 -16 13 -65 39 -108 57 -187 78 -243 117
-279 195 -66 141 6 304 160 365 43 17 68 20 166 16 75 -2 132 -10 163 -21z
m2372 -10 c35 -34 33 -78 -4 -116 -74 -74 -194 8 -147 99 18 36 27 40 84 41
33 1 49 -5 67 -24z m-1687 -279 c27 -14 62 -40 77 -58 61 -72 96 -196 80 -287
l-7 -41 -211 0 c-253 0 -261 -2 -253 -43 10 -52 39 -99 79 -131 35 -28 46 -31
125 -34 85 -4 102 0 205 43 15 6 17 0 17 -53 0 -51 -3 -62 -22 -74 -79 -51
-244 -64 -342 -28 -75 29 -139 88 -177 166 -28 56 -33 78 -37 163 -4 82 -1
111 16 167 37 120 129 212 234 234 68 14 161 4 216 -24z m685 24 c15 0 17 -10
17 -72 l0 -73 -77 0 c-65 0 -83 -4 -109 -22 -63 -45 -69 -72 -72 -335 l-3
-238 -75 0 -74 0 0 365 0 366 68 -3 67 -3 5 -45 c3 -30 7 -39 12 -28 17 41
154 104 203 93 11 -3 28 -5 38 -5z m1638 -6 l69 -16 0 -75 c0 -59 -3 -73 -12
-65 -7 5 -37 17 -67 26 -191 56 -324 -43 -323 -240 1 -183 158 -281 346 -215
l54 19 6 -30 c18 -89 4 -106 -104 -134 -74 -19 -157 -15 -235 12 -71 25 -164
119 -195 199 -33 84 -34 225 -2 306 70 177 252 261 463 213z m602 0 c57 -19
116 -75 148 -140 19 -40 24 -68 27 -156 l4 -108 -236 0 -236 0 0 -27 c1 -73
66 -153 143 -174 61 -16 167 -5 233 25 l55 25 -3 -62 -3 -62 -57 -28 c-122
-62 -304 -42 -400 42 -92 81 -138 223 -118 364 22 151 85 244 203 298 53 24
174 26 240 3z m675 -4 c32 -12 32 -13 32 -77 0 -58 -2 -64 -17 -58 -51 22
-123 36 -166 32 -67 -6 -101 -33 -105 -85 -4 -50 6 -58 137 -108 157 -61 218
-142 191 -254 -38 -159 -224 -230 -422 -162 l-53 18 -3 73 -3 72 52 -27 c129
-65 289 -34 289 56 0 47 -41 80 -157 129 -75 32 -112 53 -137 81 -92 102 -36
261 111 316 44 17 199 13 251 -6z m-1908 -355 l0 -365 -75 0 -75 0 0 365 0
365 75 0 75 0 0 -365z m-689 75 l94 -279 51 152 c28 84 68 209 90 280 l39 127
78 0 c73 0 79 -2 74 -19 -2 -10 -62 -172 -132 -360 l-127 -342 -76 3 -76 3
-118 310 c-65 171 -126 331 -137 358 l-19 47 82 0 83 0 94 -280z m2144 -798
c89 -34 160 -85 210 -152 57 -79 85 -155 92 -255 16 -229 -131 -434 -348 -484
-29 -7 -679 -11 -1884 -11 -1527 0 -1849 3 -1891 14 -222 59 -372 292 -335
520 30 184 162 331 340 378 62 16 192 17 1911 15 l1845 -2 60 -23z"/>
<path d="M2610 7991 c-78 -24 -117 -60 -157 -146 -25 -55 -28 -70 -28 -175 1
-120 16 -189 56 -256 l19 -31 -31 -39 c-58 -73 -154 -141 -220 -157 -21 -5
-28 -15 -33 -41 -9 -45 -98 -226 -147 -299 -47 -68 -51 -54 69 -217 184 -249
406 -481 597 -625 84 -63 105 -71 143 -51 34 18 70 82 142 256 28 69 70 159
92 200 38 68 39 75 23 85 -155 90 -335 240 -335 279 0 21 17 13 96 -49 238
-186 449 -285 606 -285 122 0 159 37 218 219 17 52 33 111 36 132 6 36 5 38
-22 44 -97 22 -179 63 -162 81 4 4 40 -3 80 -15 82 -24 141 -27 156 -8 5 6 19
53 29 102 l19 90 109 3 c65 2 115 7 123 15 21 17 10 102 -32 266 l-34 134 29
75 c16 42 28 77 26 78 -1 1 -28 9 -59 17 -50 13 -58 13 -58 1 0 -8 -16 -65
-36 -126 -28 -87 -44 -120 -71 -147 -33 -33 -35 -34 -101 -29 -69 5 -133 30
-164 65 -31 34 -43 104 -32 193 7 56 6 83 -1 86 -35 13 -527 145 -530 142 -1
-2 -12 -36 -24 -77 -22 -73 -22 -73 -53 -67 -17 3 -34 6 -38 6 -4 0 -11 21
-15 47 -23 154 -160 262 -285 224z m129 -120 c38 -28 62 -71 64 -119 3 -54
-16 -51 -30 5 -14 55 -39 79 -89 89 -42 8 -77 -6 -99 -40 -25 -38 -32 -188
-12 -257 19 -63 39 -85 93 -104 58 -20 57 -39 -1 -33 -101 12 -150 107 -143
276 4 107 30 180 71 200 34 18 110 8 146 -17z"/>
<path d="M3643 7778 c-15 -19 -37 -188 -31 -243 7 -59 26 -79 89 -93 97 -23
104 -20 138 51 43 91 72 193 62 219 -6 17 -26 25 -107 44 -54 13 -108 26 -120
29 -12 4 -25 1 -31 -7z"/>
<path d="M5721 3385 c-35 -8 -66 -16 -68 -19 -3 -3 61 -6 141 -8 l147 -3 -28
22 c-33 27 -92 29 -192 8z"/>
<path d="M6023 8727 c-10 -13 -87 -184 -172 -380 -109 -253 -151 -364 -147
-380 10 -43 73 -53 103 -16 20 25 313 720 313 743 0 28 -29 56 -58 56 -11 0
-29 -10 -39 -23z"/>
<path d="M5348 8478 c-141 -107 -163 -127 -166 -153 -4 -37 -3 -37 187 -180
129 -97 146 -107 169 -99 37 13 56 52 38 79 -7 11 -63 58 -124 105 -61 47
-111 87 -111 90 0 3 54 45 119 94 66 48 121 95 121 105 3 44 -10 64 -48 75
-17 6 -55 -18 -185 -116z"/>
<path d="M6340 8592 c-27 -9 -50 -35 -50 -57 0 -26 26 -51 152 -145 l97 -72
-122 -92 c-97 -72 -123 -97 -125 -118 -4 -30 27 -68 56 -68 9 0 91 55 182 121
162 118 165 120 165 157 0 36 -4 40 -145 145 -159 119 -188 137 -210 129z"/>
<path d="M5192 7673 c-30 -26 -33 -71 -6 -97 13 -14 50 -16 253 -16 218 0 239
2 254 18 23 25 21 68 -3 92 -19 19 -33 20 -249 20 -203 0 -231 -2 -249 -17z"/>
<path d="M5894 7664 c-20 -19 -24 -31 -19 -52 12 -53 7 -52 470 -52 406 0 433
1 448 18 25 27 22 78 -5 96 -19 14 -79 16 -446 16 l-423 0 -25 -26z"/>
<path d="M5181 7374 c-26 -34 -26 -54 -1 -82 19 -20 31 -22 118 -22 116 0 142
12 142 65 0 53 -26 65 -141 65 -93 0 -98 -1 -118 -26z"/>
<path d="M5600 7380 c-26 -26 -25 -60 0 -88 21 -22 22 -22 415 -22 l394 0 20
26 c12 15 21 32 21 39 0 7 -9 24 -21 39 l-20 26 -395 0 c-381 0 -395 -1 -414
-20z"/>
<path d="M5197 7119 c-39 -23 -41 -86 -3 -111 6 -4 347 -8 757 -8 710 0 747 1
762 18 21 23 22 62 3 88 -14 18 -35 19 -758 21 -510 2 -749 -1 -761 -8z"/>
<path d="M5107 5312 c-15 -16 -17 -47 -17 -219 0 -157 3 -203 14 -212 20 -16
1692 -17 1712 0 11 9 14 51 14 210 0 186 -1 200 -20 219 -20 20 -33 20 -853
20 -795 0 -835 -1 -850 -18z"/>
<path d="M9110 4560 l0 -620 155 0 c102 0 183 5 233 16 199 40 321 146 389
341 26 74 28 87 28 258 0 158 -3 189 -22 250 -43 136 -142 254 -263 313 -91
45 -194 62 -371 62 l-149 0 0 -620z"/>
<path d="M12961 4269 c-70 -12 -114 -34 -150 -75 -34 -39 -45 -84 -39 -155 5
-53 26 -90 72 -123 22 -17 42 -21 104 -21 95 1 149 25 233 103 l59 54 0 114 0
114 -112 -1 c-62 -1 -137 -5 -167 -10z"/>
<path d="M10797 4246 c-57 -16 -94 -41 -124 -86 -29 -42 -32 -147 -5 -199 64
-126 270 -107 408 37 l44 46 0 108 0 108 -137 -1 c-80 0 -159 -6 -186 -13z"/>
<path d="M9756 3070 c-55 -17 -97 -74 -111 -152 l-7 -38 166 0 166 0 0 38 c0
20 -9 56 -20 80 -30 66 -112 96 -194 72z"/>
<path d="M12680 3062 c-39 -19 -74 -75 -85 -134 l-7 -38 167 0 168 0 -6 45
c-14 97 -64 145 -152 145 -28 0 -66 -8 -85 -18z"/>
<path d="M9415 1909 c-41 -11 -85 -59 -94 -100 -18 -82 26 -145 129 -184 94
-36 128 -94 78 -129 -29 -20 -117 -21 -165 -1 -19 8 -37 15 -39 15 -2 0 -4
-20 -4 -45 0 -42 1 -44 38 -54 20 -6 66 -11 102 -11 125 0 196 61 187 163 -5
63 -32 90 -134 137 -45 22 -86 48 -93 60 -27 51 25 87 113 77 29 -3 60 -9 70
-12 16 -7 18 -3 15 36 -3 36 -7 44 -28 50 -35 10 -139 9 -175 -2z"/>
<path d="M10579 1906 c-87 -31 -132 -83 -156 -181 -29 -120 9 -233 99 -292 38
-26 49 -28 142 -28 56 0 113 5 127 12 24 10 26 15 20 45 -6 26 -12 32 -27 29
-10 -2 -54 -4 -96 -5 -86 -1 -117 14 -152 74 -27 46 -27 143 0 196 37 71 145
105 228 70 32 -13 34 -13 40 7 14 51 7 66 -31 76 -51 15 -150 13 -194 -3z"/>
<path d="M11535 1913 c-11 -3 -35 -12 -52 -20 -29 -14 -33 -20 -33 -55 0 -34
3 -39 18 -33 118 51 182 33 182 -49 -1 -57 -22 -90 -122 -199 -59 -64 -87
-102 -90 -123 l-3 -29 163 -3 162 -2 0 40 0 40 -99 0 -98 0 64 67 c36 37 78
89 94 117 51 90 33 193 -41 231 -33 17 -112 27 -145 18z"/>
<path d="M11940 1898 c-78 -40 -113 -117 -113 -249 0 -86 15 -139 50 -187 34
-45 72 -62 141 -62 71 0 116 26 149 86 48 87 49 260 1 346 -27 50 -92 88 -148
88 -20 0 -56 -10 -80 -22z m128 -80 c47 -51 56 -229 16 -299 -38 -65 -111 -62
-140 6 -36 88 -25 245 22 291 30 31 74 31 102 2z"/>
<path d="M12395 1906 c-43 -18 -92 -78 -106 -128 -17 -57 -17 -203 0 -251 16
-46 54 -93 92 -112 31 -17 115 -20 151 -6 40 15 88 73 103 125 18 59 20 179 4
241 -28 111 -146 174 -244 131z m112 -81 c32 -23 47 -80 47 -175 -1 -99 -20
-154 -59 -172 -70 -32 -125 44 -125 173 0 42 5 91 11 110 24 71 77 98 126 64z"/>
<path d="M12844 1901 c-84 -38 -130 -145 -122 -281 5 -93 37 -164 87 -197 46
-31 141 -32 189 -3 69 42 93 173 44 240 -45 62 -147 77 -198 29 l-24 -22 0 34
c1 44 32 114 58 128 30 16 98 13 132 -4 l30 -16 0 45 c0 43 0 44 -44 55 -63
16 -105 13 -152 -8z m103 -273 c31 -29 33 -108 3 -138 -59 -59 -150 23 -116
104 24 58 73 72 113 34z"/>
<path d="M9720 1655 l0 -255 50 0 50 0 0 255 0 255 -50 0 -50 0 0 -255z"/>
<path d="M9930 1655 l0 -255 40 0 40 0 0 193 0 192 29 -55 c16 -30 66 -116
113 -190 l84 -135 52 -3 52 -3 0 255 0 256 -45 0 -46 0 3 -185 c2 -102 1 -185
-2 -185 -3 0 -10 12 -16 28 -6 15 -54 98 -108 185 l-98 157 -49 0 -49 0 0
-255z"/>
<path d="M10890 1655 l0 -255 155 0 155 0 0 40 0 40 -110 0 -110 0 0 70 0 70
93 0 93 0 -4 40 -4 40 -89 0 -89 0 0 65 0 65 105 0 105 0 0 40 0 40 -150 0
-150 0 0 -255z"/>
</g>
</svg>
